<svg width="117" height="125" viewBox="0 0 117 125" fill="none" xmlns="http://www.w3.org/2000/svg">
<g clip-path="url(#clip0_300_5188)">
<path d="M12.3653 44.9766L4.40999 41.388L6.57578 36.5869L7.43036 36.9723L5.69913 40.8102L8.38715 42.0227L10.0062 38.4335L10.8608 38.819L9.24173 42.4082L11.9453 43.6278L13.7046 39.7278L14.5591 40.1133L12.3653 44.9766Z" fill="#211F1C"/>
<path d="M12.572 31.1178C12.1817 30.9276 11.7881 30.9207 11.3913 31.0973C10.9945 31.2739 10.6534 31.5841 10.3681 32.028C10.1594 32.3526 10.0294 32.6703 9.97789 32.9812C9.92795 33.2897 9.95113 33.5711 10.0474 33.8252C10.1453 34.077 10.3111 34.278 10.545 34.4284C10.7407 34.5541 10.9388 34.6158 11.1395 34.6132C11.3392 34.6067 11.5332 34.5594 11.7214 34.4713C11.9072 34.3816 12.0821 34.2749 12.246 34.1509C12.4076 34.0255 12.5501 33.9063 12.6733 33.7932L13.3524 33.1776C13.5252 33.0189 13.731 32.851 13.9696 32.6739C14.2098 32.4944 14.4752 32.3463 14.766 32.2297C15.056 32.1092 15.3643 32.0545 15.6911 32.0656C16.0179 32.0767 16.3531 32.1927 16.6967 32.4136C17.0928 32.6682 17.3841 33.0022 17.5704 33.4153C17.7582 33.8261 17.8191 34.2902 17.7529 34.8075C17.6883 35.3225 17.475 35.8615 17.1129 36.4247C16.7754 36.9497 16.3985 37.3499 15.9821 37.6251C15.5672 37.898 15.1376 38.0468 14.6934 38.0716C14.2508 38.0939 13.8198 37.9905 13.4004 37.7614L13.9895 36.8451C14.2817 36.9991 14.5706 37.0534 14.8563 37.0077C15.1411 36.9581 15.4082 36.8364 15.6576 36.6426C15.9061 36.4448 16.124 36.2004 16.3111 35.9093C16.529 35.5704 16.6697 35.2309 16.7333 34.8906C16.7945 34.5489 16.7766 34.2356 16.6798 33.9507C16.5806 33.6644 16.3974 33.4353 16.1301 33.2635C15.8867 33.107 15.6449 33.0477 15.4047 33.0855C15.1646 33.1234 14.9254 33.2226 14.6873 33.3831C14.4492 33.5437 14.2115 33.7298 13.9742 33.9415L13.1366 34.6779C12.6037 35.1448 12.0772 35.4471 11.557 35.5848C11.0368 35.7225 10.5297 35.6326 10.0357 35.3151C9.62522 35.0512 9.3386 34.7101 9.17582 34.2918C9.01218 33.8696 8.96684 33.4155 9.03979 32.9295C9.1119 32.4397 9.29829 31.9609 9.59897 31.4931C9.90272 31.0206 10.2574 30.6551 10.6631 30.3965C11.0664 30.1364 11.4827 29.9925 11.9119 29.9649C12.3426 29.9349 12.7468 30.0328 13.1243 30.2587L12.572 31.1178Z" fill="#211F1C"/>
<path d="M17.5694 24.9175C17.2076 24.6763 16.818 24.6167 16.4005 24.7387C15.983 24.8606 15.6028 25.1227 15.2601 25.5249C15.0095 25.8189 14.8378 26.1167 14.7449 26.4184C14.6539 26.7178 14.6392 27.0001 14.7006 27.2653C14.7639 27.5282 14.9015 27.75 15.1134 27.9306C15.2907 28.0817 15.4791 28.1695 15.6785 28.1939C15.8776 28.2143 16.0765 28.1934 16.275 28.1312C16.4715 28.0672 16.6593 27.9847 16.8387 27.8837C17.0159 27.7809 17.1732 27.6817 17.3107 27.5861L18.0673 27.0663C18.2601 26.932 18.4868 26.793 18.7474 26.6493C19.0098 26.5034 19.2932 26.3922 19.5974 26.3155C19.9013 26.2348 20.2146 26.2219 20.5374 26.2768C20.8602 26.3317 21.1773 26.4918 21.4886 26.7571C21.8475 27.063 22.0917 27.4335 22.2211 27.8685C22.3524 28.3014 22.3505 28.7701 22.2154 29.2746C22.0821 29.7769 21.7981 30.2833 21.3632 30.7935C20.9578 31.2692 20.53 31.6157 20.0798 31.833C19.6314 32.0481 19.1852 32.1381 18.741 32.103C18.2987 32.0657 17.8849 31.9052 17.4996 31.6216L18.2072 30.7913C18.4764 30.9835 18.7559 31.076 19.0455 31.0691C19.3348 31.0581 19.6162 30.9732 19.8897 30.8143C20.1629 30.6515 20.4119 30.4381 20.6367 30.1744C20.8984 29.8673 21.0836 29.5493 21.1923 29.2202C21.299 28.8892 21.3233 28.5759 21.2655 28.2803C21.2055 27.9828 21.0544 27.7309 20.8123 27.5245C20.5917 27.3365 20.3597 27.2452 20.1163 27.2505C19.8729 27.2558 19.6223 27.3221 19.3644 27.4495C19.1065 27.5769 18.8457 27.7297 18.5818 27.9079L17.6517 28.5262C17.0602 28.918 16.4972 29.1473 15.9624 29.2141C15.4277 29.2809 14.9365 29.1236 14.4889 28.7422C14.117 28.4252 13.8784 28.0483 13.773 27.6113C13.6673 27.1703 13.6833 26.7136 13.8209 26.2412C13.9583 25.7647 14.2075 25.3146 14.5687 24.8908C14.9336 24.4627 15.3346 24.1476 15.7719 23.9454C16.2071 23.7414 16.6395 23.6546 17.0691 23.6848C17.5006 23.7128 17.8885 23.8643 18.2328 24.1391L17.5694 24.9175Z" fill="#211F1C"/>
<path d="M24.2084 27.5911L18.4484 21.0456L22.3987 17.5694L23.0175 18.2725L19.8598 21.0513L21.806 23.2629L24.7592 20.6642L25.3779 21.3673L22.4248 23.966L24.3823 26.1905L27.5911 23.3667L28.2099 24.0698L24.2084 27.5911Z" fill="#211F1C"/>
<path d="M31.0171 11.8389L35.6509 19.2344L34.7843 19.7774L27.1161 16.4958L27.0438 16.5411L30.6821 22.3477L29.7865 22.9088L25.1527 15.5133L26.0194 14.9703L33.7111 18.2573L33.7833 18.212L30.136 12.391L31.0171 11.8389Z" fill="#211F1C"/>
<path d="M34.4155 11.291L34.0569 10.4248L40.1045 7.92103L40.4632 8.78723L37.9276 9.837L40.9073 17.0343L39.9309 17.4386L36.9511 10.2413L34.4155 11.291Z" fill="#211F1C"/>
<path d="M42.8048 7.24995L45.2485 15.6281L44.2339 15.924L41.7903 7.54586L42.8048 7.24995Z" fill="#211F1C"/>
<path d="M53.4848 5.15224L54.85 13.7721L53.8399 13.9321L48.0708 7.9081L47.9866 7.92143L49.0586 14.6893L48.0148 14.8547L46.6495 6.23484L47.6597 6.07485L53.4482 12.113L53.5324 12.0996L52.4578 5.31489L53.4848 5.15224Z" fill="#211F1C"/>
<path d="M57.6748 13.7359L56.5669 13.7137L59.946 5.05052L61.0369 5.07233L64.0669 13.8637L62.9589 13.8415L60.4979 6.44279L60.4297 6.44143L57.6748 13.7359ZM58.1521 10.3349L62.618 10.4243L62.5993 11.3618L58.1333 11.2724L58.1521 10.3349Z" fill="#211F1C"/>
<path d="M65.9205 14.2477L67.4705 5.65912L68.5105 5.84681L67.1271 13.5128L71.1194 14.2332L70.9529 15.1558L65.9205 14.2477Z" fill="#211F1C"/>
<path d="M78.1865 17.6967L75.7109 16.6362L79.1475 8.61403L81.7328 9.72155C82.511 10.0549 83.1081 10.5008 83.5241 11.0591C83.9412 11.6149 84.1692 12.255 84.2082 12.9794C84.2482 13.7012 84.0903 14.4773 83.7346 15.3077C83.3766 16.1434 82.9195 16.799 82.3634 17.2747C81.8084 17.7478 81.1769 18.0243 80.4689 18.1043C79.762 18.1816 79.0012 18.0457 78.1865 17.6967ZM77.0515 16.1906L78.493 16.8081C79.1563 17.0923 79.7608 17.1998 80.3065 17.1307C80.8522 17.0616 81.3334 16.8366 81.75 16.4557C82.1667 16.0747 82.5148 15.5578 82.7945 14.905C83.0719 14.2574 83.205 13.6545 83.1937 13.0965C83.1836 12.5358 83.022 12.0401 82.7089 11.6093C82.397 11.1759 81.9277 10.8249 81.301 10.5565L79.7498 9.89194L77.0515 16.1906Z" fill="#211F1C"/>
<path d="M84.1486 20.6848L88.8614 13.3539L93.2857 16.1981L92.7794 16.9856L89.2428 14.7121L87.6505 17.1892L90.958 19.3154L90.4517 20.1029L87.1442 17.9767L85.5426 20.468L89.1365 22.7784L88.6302 23.5659L84.1486 20.6848Z" fill="#211F1C"/>
<path d="M97.8459 22.7946C98.0878 22.4332 98.148 22.0437 98.0268 21.6259C97.9055 21.2082 97.6441 20.8276 97.2425 20.4841C96.9489 20.233 96.6513 20.0608 96.3499 19.9674C96.0505 19.8759 95.7683 19.8606 95.503 19.9216C95.2399 19.9845 95.0179 20.1217 94.8369 20.3333C94.6855 20.5103 94.5974 20.6986 94.5727 20.898C94.5519 21.097 94.5725 21.2959 94.6343 21.4946C94.698 21.6912 94.7802 21.8792 94.8808 22.0587C94.9833 22.2361 95.0823 22.3936 95.1776 22.5313L95.6962 23.2888C95.8301 23.4819 95.9687 23.7088 96.112 23.9697C96.2574 24.2324 96.3682 24.5159 96.4443 24.8203C96.5245 25.1243 96.5368 25.4377 96.4814 25.7604C96.426 26.0831 96.2653 26.3999 95.9994 26.7108C95.6929 27.0692 95.322 27.3128 94.8867 27.4414C94.4536 27.572 93.9848 27.5692 93.4806 27.4333C92.9784 27.2991 92.4726 27.0142 91.963 26.5784C91.488 26.1721 91.1423 25.7437 90.9258 25.2931C90.7114 24.8444 90.6222 24.398 90.6581 23.9539C90.6961 23.5116 90.8573 23.0981 91.1416 22.7132L91.9707 23.4223C91.7781 23.6912 91.685 23.9705 91.6915 24.2601C91.702 24.5495 91.7864 24.831 91.9448 25.1048C92.1072 25.3783 92.3201 25.6277 92.5835 25.8529C92.8901 26.1152 93.2078 26.3009 93.5368 26.4103C93.8675 26.5175 94.1808 26.5424 94.4766 26.4851C94.7742 26.4256 95.0264 26.2749 95.2332 26.0331C95.4216 25.8129 95.5133 25.5811 95.5084 25.3376C95.5035 25.0942 95.4376 24.8434 95.3107 24.5853C95.1838 24.3272 95.0314 24.0661 94.8536 23.8019L94.2369 22.8707C93.8461 22.2785 93.6178 21.715 93.5519 21.1801C93.486 20.6452 93.6441 20.1543 94.0264 19.7074C94.344 19.336 94.7214 19.098 95.1586 18.9934C95.5997 18.8884 96.0564 18.9052 96.5287 19.0437C97.0049 19.1818 97.4546 19.4319 97.8778 19.7938C98.3053 20.1594 98.6198 20.5611 98.8212 20.9987C99.0244 21.4342 99.1105 21.8668 99.0796 22.2964C99.0508 22.7279 98.8986 23.1155 98.6232 23.4594L97.8459 22.7946Z" fill="#211F1C"/>
<path d="M102.077 23.9841L95.7063 30.0059L94.9771 29.2344L101.348 23.2126L102.077 23.9841Z" fill="#211F1C"/>
<path d="M105.94 33.4564C106.117 33.2119 106.253 32.9608 106.346 32.7032C106.444 32.4461 106.497 32.1849 106.504 31.9197C106.513 31.6567 106.475 31.3933 106.388 31.1295C106.302 30.8656 106.166 30.6061 105.981 30.351C105.677 29.9326 105.293 29.6306 104.828 29.4451C104.363 29.2595 103.847 29.2183 103.279 29.3216C102.712 29.4248 102.122 29.6984 101.511 30.1425C100.899 30.5866 100.458 31.0637 100.186 31.5738C99.9136 32.0838 99.7964 32.592 99.8341 33.0984C99.8718 33.6047 100.049 34.0762 100.366 34.513C100.66 34.9175 101.005 35.2112 101.401 35.394C101.801 35.5775 102.223 35.6402 102.665 35.5822C103.111 35.5248 103.551 35.3392 103.983 35.0254L104.118 35.3275L102.575 33.2035L103.334 32.6526L105.287 35.342L104.529 35.8929C103.947 36.3153 103.351 36.5585 102.741 36.6224C102.133 36.6886 101.552 36.5905 101 36.328C100.452 36.0662 99.9738 35.6548 99.5665 35.0939C99.1124 34.4687 98.8605 33.8125 98.8108 33.1253C98.7628 32.4404 98.9141 31.7687 99.2646 31.1104C99.6167 30.4544 100.165 29.8559 100.91 29.315C101.469 28.9093 102.025 28.6193 102.579 28.4448C103.138 28.271 103.675 28.2076 104.19 28.2547C104.705 28.3019 105.184 28.453 105.625 28.7081C106.067 28.9632 106.452 29.3172 106.781 29.77C107.051 30.1424 107.247 30.5304 107.368 30.934C107.493 31.3382 107.545 31.7411 107.524 32.1425C107.507 32.5445 107.419 32.9333 107.26 33.3087C107.103 33.6825 106.877 34.0259 106.581 34.3391L105.94 33.4564Z" fill="#211F1C"/>
<path d="M114.481 41.9089L106.626 45.6616L106.186 44.7412L110.308 37.5146L110.272 37.4379L104.105 40.3844L103.65 39.4332L111.505 35.6805L111.945 36.601L107.814 43.8502L107.851 43.9269L114.033 40.9731L114.481 41.9089Z" fill="#211F1C"/>
<path d="M104.118 85.0838L111.798 89.2729L111.291 90.2029L107.871 88.3374L105.637 92.4324L109.057 94.2979L108.55 95.2279L100.87 91.0388L101.377 90.1088L104.812 91.9824L107.046 87.8874L103.611 86.0138L104.118 85.0838Z" fill="#211F1C"/>
<path d="M106.79 99.1598L99.7211 94.098L100.334 93.242L107.403 98.3038L106.79 99.1598Z" fill="#211F1C"/>
<path d="M98.2665 104.929C98.5398 105.056 98.8115 105.14 99.0817 105.183C99.3521 105.229 99.6178 105.231 99.879 105.188C100.138 105.146 100.389 105.058 100.631 104.923C100.873 104.788 101.101 104.606 101.315 104.376C101.667 103.998 101.889 103.564 101.982 103.074C102.075 102.583 102.016 102.07 101.807 101.534C101.597 100.998 101.217 100.473 100.665 99.9588C100.114 99.4449 99.562 99.1035 99.0105 98.9346C98.4591 98.7656 97.9391 98.748 97.4505 98.8816C96.9619 99.0153 96.5341 99.2791 96.1671 99.6731C95.8271 100.038 95.6054 100.432 95.5021 100.855C95.3989 101.282 95.418 101.706 95.5593 102.128C95.7007 102.554 95.9664 102.949 96.3563 103.312L96.0863 103.502L97.8713 101.586L98.5556 102.223L96.2954 104.65L95.611 104.012C95.0863 103.524 94.7344 102.987 94.5552 102.401C94.3741 101.818 94.3593 101.231 94.5108 100.64C94.6625 100.053 94.974 99.5069 95.4454 99.0009C95.9708 98.4368 96.5652 98.0647 97.2286 97.8848C97.8901 97.7069 98.5767 97.7267 99.2883 97.9441C99.9979 98.1636 100.689 98.5863 101.361 99.2122C101.865 99.6816 102.255 100.171 102.532 100.681C102.809 101.194 102.973 101.708 103.026 102.221C103.078 102.735 103.021 103.232 102.856 103.713C102.69 104.195 102.417 104.639 102.037 105.048C101.724 105.384 101.381 105.65 101.009 105.845C100.637 106.045 100.253 106.173 99.8558 106.229C99.4588 106.289 99.0614 106.277 98.6633 106.193C98.2674 106.111 97.8878 105.955 97.5247 105.725L98.2665 104.929Z" fill="#211F1C"/>
<path d="M90.6686 102.394L95.8177 109.463L94.9617 110.086L92.6688 106.939L88.8995 109.684L91.1924 112.832L90.3364 113.455L85.1873 106.386L86.0434 105.763L88.3464 108.925L92.1156 106.179L89.8126 103.017L90.6686 102.394Z" fill="#211F1C"/>
<path d="M80.308 108.954L83.7292 116.983L81.0164 118.139C80.3865 118.407 79.8232 118.513 79.3264 118.456C78.8282 118.403 78.4005 118.225 78.0434 117.924C77.6863 117.622 77.4069 117.234 77.2053 116.761C77.0038 116.288 76.9173 115.817 76.9458 115.348C76.9718 114.88 77.1357 114.446 77.4376 114.045C77.7406 113.647 78.2044 113.315 78.829 113.049L80.7734 112.221L81.141 113.083L79.2279 113.898C78.7966 114.082 78.4821 114.304 78.2842 114.565C78.0863 114.825 77.9826 115.107 77.973 115.41C77.962 115.718 78.0249 116.032 78.1619 116.354C78.2989 116.675 78.4815 116.937 78.7097 117.139C78.9354 117.343 79.2108 117.46 79.536 117.491C79.8623 117.525 80.2437 117.449 80.6802 117.263L82.3894 116.535L79.3357 109.369L80.308 108.954Z" fill="#211F1C"/>
<path d="M73.1743 111.709L75.3167 120.17L72.458 120.894C71.7971 121.061 71.226 121.085 70.7447 120.967C70.2641 120.851 69.8723 120.624 69.5695 120.284C69.2667 119.945 69.0522 119.526 68.9259 119.027C68.7997 118.529 68.7897 118.061 68.8959 117.624C69.002 117.187 69.2379 116.805 69.6034 116.478C69.9697 116.153 70.4806 115.908 71.136 115.742L73.4494 115.157L73.6837 116.082L71.4034 116.659C70.9517 116.774 70.6049 116.932 70.363 117.134C70.1183 117.336 69.9647 117.575 69.9022 117.848C69.8375 118.125 69.8481 118.433 69.9339 118.772C70.0197 119.111 70.158 119.391 70.3488 119.612C70.5397 119.833 70.7916 119.978 71.1046 120.045C71.4183 120.115 71.8038 120.092 72.2609 119.976L74.0621 119.52L72.1498 111.969L73.1743 111.709ZM70.1544 116.518L67.1101 113.245L68.2998 112.944L71.3111 116.225L70.1544 116.518Z" fill="#211F1C"/>
<path d="M58.3818 118.312C58.3163 117.394 58.4255 116.588 58.7093 115.896C58.9932 115.203 59.4112 114.655 59.9634 114.251C60.5156 113.847 61.1629 113.619 61.9053 113.566C62.6478 113.513 63.321 113.647 63.9249 113.969C64.5289 114.29 65.0205 114.774 65.3997 115.419C65.7789 116.064 66.0013 116.845 66.0668 117.764C66.1323 118.682 66.0231 119.487 65.7393 120.179C65.4554 120.872 65.0374 121.42 64.4852 121.824C63.933 122.228 63.2857 122.456 62.5433 122.509C61.8008 122.562 61.1276 122.428 60.5237 122.106C59.9197 121.785 59.4281 121.302 59.0489 120.657C58.6696 120.011 58.4473 119.23 58.3818 118.312ZM59.4019 118.239C59.4557 118.993 59.6272 119.62 59.9164 120.12C60.2027 120.621 60.5693 120.99 61.0162 121.225C61.4603 121.461 61.9458 121.561 62.4729 121.523C63 121.485 63.468 121.318 63.8769 121.021C64.2829 120.725 64.5935 120.308 64.8088 119.771C65.0211 119.235 65.1004 118.59 65.0467 117.836C64.9929 117.083 64.8228 116.455 64.5365 115.954C64.2473 115.454 63.8807 115.086 63.4366 114.85C62.9897 114.614 62.5027 114.515 61.9757 114.552C61.4486 114.59 60.982 114.757 60.576 115.054C60.1671 115.35 59.8565 115.767 59.6441 116.303C59.4289 116.84 59.3482 117.485 59.4019 118.239Z" fill="#211F1C"/>
<path d="M52.7908 114.4L55.4571 114.723L54.4098 123.363L51.6254 123.026C50.7873 122.924 50.0911 122.664 49.5368 122.246C48.9821 121.831 48.5849 121.282 48.3452 120.599C48.1051 119.919 48.0392 119.132 48.1477 118.238C48.2567 117.338 48.511 116.582 48.9103 115.971C49.3094 115.363 49.8366 114.922 50.492 114.648C51.1471 114.376 51.9133 114.294 52.7908 114.4ZM54.2983 115.524L52.7458 115.336C52.0315 115.25 51.4227 115.316 50.9196 115.534C50.4165 115.753 50.0188 116.103 49.7265 116.584C49.4342 117.065 49.2454 117.657 49.1602 118.36C49.0756 119.058 49.1167 119.672 49.2835 120.203C49.45 120.737 49.7432 121.167 50.1633 121.491C50.5831 121.819 51.1304 122.024 51.8054 122.106L53.4761 122.308L54.2983 115.524Z" fill="#211F1C"/>
<path d="M37.9901 118.799L36.9841 118.476L38.7543 112.975C38.9371 112.407 39.2342 111.943 39.6455 111.583C40.0532 111.225 40.5405 110.995 41.1073 110.894C41.6731 110.796 42.2819 110.851 42.9337 111.061C43.5854 111.271 44.1124 111.581 44.5147 111.991C44.9161 112.403 45.1793 112.875 45.3042 113.404C45.4257 113.936 45.395 114.485 45.2122 115.053L43.4419 120.554L42.4359 120.23L44.1801 114.811C44.3107 114.405 44.3376 114.015 44.2609 113.641C44.1834 113.27 44.0089 112.941 43.7372 112.654C43.4621 112.368 43.0932 112.151 42.6308 112.002C42.1684 111.853 41.7421 111.815 41.352 111.886C40.9611 111.96 40.6273 112.126 40.3505 112.383C40.0702 112.642 39.8648 112.974 39.7342 113.38L37.9901 118.799Z" fill="#211F1C"/>
<path d="M28.4408 111.095L29.3739 111.591C29.2864 111.889 29.2576 112.176 29.2875 112.452C29.315 112.727 29.3898 112.986 29.5121 113.228C29.6306 113.471 29.789 113.691 29.9875 113.886C30.1859 114.082 30.4131 114.248 30.6689 114.384C31.1355 114.632 31.6208 114.738 32.125 114.704C32.6266 114.668 33.1111 114.48 33.5784 114.14C34.0432 113.798 34.453 113.294 34.8077 112.627C35.1625 111.959 35.3516 111.338 35.3749 110.761C35.3957 110.184 35.2807 109.677 35.0298 109.241C34.7764 108.804 34.4164 108.461 33.9499 108.213C33.694 108.077 33.4295 107.981 33.1564 107.926C32.8833 107.871 32.6135 107.861 32.347 107.896C32.0766 107.933 31.8197 108.017 31.5762 108.148C31.3289 108.28 31.107 108.465 30.9104 108.701L29.9773 108.205C30.2569 107.849 30.5722 107.564 30.9232 107.352C31.2742 107.139 31.6457 106.997 32.0377 106.926C32.4283 106.857 32.8254 106.857 33.2291 106.927C33.6302 106.996 34.0252 107.133 34.414 107.34C35.0712 107.69 35.5703 108.161 35.9113 108.754C36.2523 109.347 36.4121 110.018 36.3909 110.766C36.3696 111.514 36.1429 112.294 35.7108 113.107C35.2786 113.92 34.7584 114.544 34.1502 114.98C33.542 115.416 32.8966 115.658 32.2142 115.707C31.5318 115.756 30.862 115.606 30.2048 115.256C29.816 115.05 29.481 114.799 29.1999 114.505C28.9163 114.209 28.6945 113.879 28.5346 113.514C28.3734 113.152 28.2827 112.766 28.2624 112.356C28.2409 111.949 28.3003 111.528 28.4408 111.095Z" fill="#211F1C"/>
<path d="M25.592 111.316L25.0201 112.066L19.7837 108.073L20.3556 107.323L22.5511 108.997L27.3028 102.765L28.1483 103.41L23.3965 109.642L25.592 111.316Z" fill="#211F1C"/>
<path d="M17.9758 106.052L23.9611 99.7005L24.7302 100.425L18.7449 106.777L17.9758 106.052Z" fill="#211F1C"/>
<path d="M13.8065 94.7011C14.5244 94.1213 15.2496 93.7498 15.9819 93.5866C16.7143 93.4235 17.4048 93.4534 18.0536 93.6764C18.7023 93.8993 19.2612 94.3011 19.7301 94.8817C20.199 95.4622 20.4742 96.0931 20.5557 96.7742C20.6372 97.4554 20.5211 98.1367 20.2076 98.8184C19.894 99.5 19.3783 100.131 18.6603 100.711C17.9424 101.291 17.2172 101.662 16.4849 101.825C15.7525 101.988 15.0619 101.958 14.4132 101.735C13.7644 101.513 13.2056 101.111 12.7367 100.53C12.2678 99.9496 11.9926 99.3188 11.9111 98.6376C11.8296 97.9565 11.9456 97.2751 12.2592 96.5935C12.5728 95.9118 13.0885 95.281 13.8065 94.7011ZM14.4508 95.4989C13.8613 95.975 13.4435 96.4754 13.1973 97.0001C12.9493 97.5226 12.8563 98.0353 12.9182 98.5382C12.9784 99.0388 13.1749 99.4952 13.5078 99.9073C13.8407 100.32 14.2464 100.609 14.725 100.775C15.2018 100.939 15.7225 100.956 16.2873 100.826C16.8504 100.693 17.4266 100.389 18.016 99.913C18.6054 99.4369 19.0242 98.9376 19.2722 98.4151C19.5184 97.8903 19.6114 97.3776 19.5512 96.877C19.4893 96.3742 19.2919 95.9167 18.959 95.5045C18.6261 95.0923 18.2212 94.8042 17.7445 94.64C17.2659 94.4737 16.7451 94.4568 16.1821 94.5893C15.6173 94.7196 15.0402 95.0228 14.4508 95.4989Z" fill="#211F1C"/>
<path d="M4.16414 88.2796L11.8441 84.1778L12.3248 85.0778L8.52999 92.4834L8.57004 92.5584L14.6 89.3378L15.0967 90.2678L7.41675 94.3696L6.93607 93.4696L10.7379 86.0411L10.6978 85.9661L4.65283 89.1946L4.16414 88.2796Z" fill="#211F1C"/>
<path d="M58.7402 107.84C82.9468 107.84 102.57 88.2167 102.57 64.0101C102.57 39.8034 82.9468 20.1801 58.7402 20.1801C34.5335 20.1801 14.9102 39.8034 14.9102 64.0101C14.9102 88.2167 34.5335 107.84 58.7402 107.84Z" stroke="#211F1C" stroke-width="0.95" stroke-miterlimit="10"/>
<path d="M7.10968 81.28C3.59943 70.7161 3.42139 59.3285 6.59968 48.66" stroke="#211F1C" stroke-width="1.17" stroke-miterlimit="10"/>
<path d="M110.432 49.73C113.328 60.2254 113.008 71.3487 109.512 81.66" stroke="#211F1C" stroke-width="1.17" stroke-miterlimit="10"/>
</g>
<defs>
<clipPath id="clip0_300_5188">
<rect width="116.58" height="124.68" fill="white"/>
</clipPath>
</defs>
</svg>
