<svg width="88" height="88" viewBox="0 0 88 88" fill="none" xmlns="http://www.w3.org/2000/svg">
<path d="M21.3809 63.33L18.7509 25.44L18.5609 23.44C18.5029 23.0628 18.5303 22.6774 18.641 22.3122C18.7518 21.947 18.9431 21.6114 19.2009 21.33C19.5053 21.0251 19.8844 20.8055 20.3003 20.6932C20.7163 20.5809 21.1544 20.5798 21.5709 20.69C21.9109 20.77 22.6309 20.84 22.9309 20.88C25.3409 21.18 26.9309 21.37 28.4309 21.48C30.8439 21.753 33.2742 21.8433 35.7009 21.75C37.8109 21.56 38.1809 21.48 41.2009 21.03C45.0409 20.43 45.8709 21.03 46.4709 21.52C46.8264 21.8278 47.1087 22.211 47.2973 22.6418C47.4859 23.0726 47.5759 23.54 47.5609 24.01C47.4866 24.7191 47.3731 25.4235 47.2209 26.12C46.7009 28.64 46.3909 39.19 46.3909 40.84C46.3755 42.0406 46.4794 43.2398 46.7009 44.42C46.7181 44.5235 46.7744 44.6164 46.8581 44.6797C46.9418 44.7429 47.0466 44.7716 47.1509 44.76L62.8509 43.18C64.8509 43.03 66.8509 42.73 67.7909 43.93C68.7309 45.13 68.3909 46.42 67.4909 47.85C67.169 48.3584 66.999 48.9482 67.0009 49.55L66.3609 64.12C66.3598 64.2972 66.2943 64.4681 66.1765 64.6005C66.0587 64.733 65.8968 64.8181 65.7209 64.84L37.9909 67.84H37.7309L21.9909 64.04C21.8315 63.9932 21.6891 63.9012 21.5808 63.7752C21.4726 63.6493 21.4031 63.4946 21.3809 63.33Z" stroke="#211F1C" stroke-width="1.5" stroke-linecap="round" stroke-linejoin="round"/>
<path d="M25.0781 26.4199C25.0781 26.4199 27.2581 37.2999 27.8981 43.8199C27.9251 43.9292 27.9882 44.0261 28.0771 44.0951C28.166 44.164 28.2756 44.201 28.3881 44.1999C30.4981 43.8899 40.4781 43.2499 41.6081 45.8899C42.6081 48.2299 42.7081 55.1899 42.7381 56.9999C42.7364 57.0581 42.7471 57.116 42.7696 57.1698C42.792 57.2235 42.8256 57.2719 42.8682 57.3116C42.9108 57.3514 42.9613 57.3816 43.0165 57.4002C43.0717 57.4189 43.1302 57.4256 43.1881 57.4199L60.1081 55.4199" stroke="#211F1C" stroke-width="1.5" stroke-linecap="round" stroke-linejoin="round"/>
<path d="M37.6914 67.78L36.1914 48.98" stroke="#211F1C" stroke-width="1.5" stroke-linecap="round" stroke-linejoin="round"/>
<path d="M58.3711 42.7699V36.4399" stroke="#211F1C" stroke-width="1.5" stroke-linecap="round" stroke-linejoin="round"/>
<path d="M60.8594 36.5499V39.5499" stroke="#211F1C" stroke-width="1.5" stroke-linecap="round" stroke-linejoin="round"/>
<path d="M55.8892 36.4399C55.8549 36.9058 55.6456 37.3414 55.3034 37.6594C54.9612 37.9773 54.5113 38.154 54.0442 38.154C53.5771 38.154 53.1273 37.9773 52.785 37.6594C52.4428 37.3414 52.2335 36.9058 52.1992 36.4399" stroke="#211F1C" stroke-width="1.5" stroke-linecap="round" stroke-linejoin="round"/>
<path d="M60.9311 20.32H55.7711C55.6206 20.3145 55.4726 20.3598 55.351 20.4487C55.2295 20.5376 55.1414 20.6649 55.1011 20.81L50.2411 33.55C50.215 33.6167 50.2057 33.6887 50.2138 33.7599C50.2219 33.831 50.2473 33.8991 50.2877 33.9582C50.3281 34.0173 50.3823 34.0657 50.4456 34.0991C50.5089 34.1325 50.5795 34.15 50.6511 34.15H66.0211C66.0927 34.15 66.1632 34.1325 66.2265 34.0991C66.2899 34.0657 66.3441 34.0173 66.3845 33.9582C66.4249 33.8991 66.4502 33.831 66.4583 33.7599C66.4665 33.6887 66.4571 33.6167 66.4311 33.55L61.6111 20.81C61.5703 20.6631 61.4808 20.5346 61.3571 20.4455C61.2335 20.3564 61.0832 20.3122 60.9311 20.32Z" stroke="#211F1C" stroke-width="1.5" stroke-linecap="round" stroke-linejoin="round"/>
</svg>
